# xmcd
#
# Track frame offsets: 
#        150
#        13917
#        29850
#        49668
#        71334
#        90263
#        105772
#        122752
#        141361
#        163087
#        181710
#        206443
#        230628
#
# Disc length: 3349 seconds
#
# Revision: 0
# Processed by: cddbd v1.5.2PL0 Copyright (c) Steve Scherf et al.
# Submitted via: ExactAudioCopy v0.99pb5
#
DISCID=a90d130d
DTITLE=Six Market Blvd. - Running On Seven
DYEAR=2010
DGENRE=Country
TTITLE0=A Feelin
TTITLE1=Man Alive
TTITLE2=Silence In Me
TTITLE3=High In Heaven
TTITLE4=Terrible Lies
TTITLE5=Ready To Throw
TTITLE6=Misery In Me
TTITLE7=That's The Way Love Goes
TTITLE8=Stick To What's In Store
TTITLE9=Roll Locomotive
TTITLE10=Roses
TTITLE11=Stuck In The Pen
TTITLE12=Wintertime
EXTD=
EXTT0=
EXTT1=
EXTT2=
EXTT3=
EXTT4=
EXTT5=
EXTT6=
EXTT7=
EXTT8=
EXTT9=
EXTT10=
EXTT11=
EXTT12=
PLAYORDER=
